<svg width="64" height="64" viewBox="0 0 64 64" fill="none" xmlns="http://www.w3.org/2000/svg">
  <defs>
    <linearGradient id="bg" x1="6" y1="6" x2="58" y2="58" gradientUnits="userSpaceOnUse">
      <stop stop-color="#2874F0" />
      <stop offset="1" stop-color="#1A56C6" />
    </linearGradient>
    <linearGradient id="bag" x1="16" y1="20" x2="48" y2="52" gradientUnits="userSpaceOnUse">
      <stop stop-color="#FFB02E" />
      <stop offset="1" stop-color="#FF7A00" />
    </linearGradient>
  </defs>
  <rect x="4" y="4" width="56" height="56" rx="14" fill="url(#bg)" />
  <path d="M20 25C20 18.3726 25.3726 13 32 13C38.6274 13 44 18.3726 44 25V27H40V25C40 20.5817 36.4183 17 32 17C27.5817 17 24 20.5817 24 25V27H20V25Z" fill="white" />
  <rect x="14" y="25" width="36" height="27" rx="8" fill="url(#bag)" />
  <path d="M23 33C23 28.5817 26.5817 25 31 25H33C37.4183 25 41 28.5817 41 33V34C41 38.4183 37.4183 42 33 42H31C26.5817 42 23 38.4183 23 34V33Z" fill="white" fill-opacity="0.3"/>
</svg>
